<svg fill="none" height="100%" width="100%" viewBox="0 0 512 512" xmlns:xlink="http://www.w3.org/1999/xlink" xmlns="http://www.w3.org/2000/svg"><defs><mask id="i0"><rect fill="white" height="100%" width="100%" /><path fill="black" d="M17.767,-1.687C15.579,-0.625,5.954,13.813,5.954,13.813C5.954,13.813,5.267,8.625,-0.421,10.125C-6.109,11.625,0.267,25.687,6.579,22.625C12.891,19.563,24.954,1.813,24.954,1.813C24.954,1.813,19.955,-2.749,17.767,-1.687Z"><animate repeatCount="indefinite" begin="0s" keySplines="0.333 0 0.833 0.833; 0.167 0.167 0.667 1; 0 0 1 1" calcMode="spline" fill="freeze" dur="4.017s" keyTimes="0; 0.041494; 0.248963; 1" values="M0,0 L512,0 L512,512 L0,512 Z M17.767,-1.687C15.579,-0.625,5.954,13.813,5.954,13.813C5.954,13.813,5.267,8.625,-0.421,10.125C-6.109,11.625,0.267,25.687,6.579,22.625C12.891,19.563,24.954,1.813,24.954,1.813C24.954,1.813,19.955,-2.749,17.767,-1.687Z; M0,0 L512,0 L512,512 L0,512 Z M17.767,-1.687C15.579,-0.625,5.662,12.208,5.662,12.208C5.662,12.208,5.516,14.063,2.308,17.49C-1.296,19.938,0.413,24.333,6.725,21.271C13.037,18.209,24.954,1.813,24.954,1.813C24.954,1.813,19.955,-2.749,17.767,-1.687Z; M0,0 L512,0 L512,512 L0,512 Z M15.767,-2.562C13.579,-1.5,22.142,-8.062,22.142,-8.062C22.142,-8.062,23.588,-7.362,19.642,-3C17.267,-0.375,22.142,5.562,28.454,2.5C34.766,-0.562,24.954,1.813,24.954,1.813C24.954,1.813,17.955,-3.624,15.767,-2.562Z; M0,0 L512,0 L512,512 L0,512 Z M15.767,-2.562C13.579,-1.5,22.142,-8.062,22.142,-8.062C22.142,-8.062,23.588,-7.362,19.642,-3C17.267,-0.375,22.142,5.562,28.454,2.5C34.766,-0.562,24.954,1.813,24.954,1.813C24.954,1.813,17.955,-3.624,15.767,-2.562Z" attributeName="d" /></path></mask><mask id="i1"><rect fill="white" height="100%" width="100%" /><path fill="black" d="M17.767,-1.687C15.579,-0.625,5.954,13.813,5.954,13.813C5.954,13.813,5.267,8.625,-0.421,10.125C-6.109,11.625,0.267,25.687,6.579,22.625C12.891,19.563,24.954,1.813,24.954,1.813C24.954,1.813,19.955,-2.749,17.767,-1.687Z"><animate repeatCount="indefinite" begin="0s" keySplines="0.333 0 0.833 0.833; 0.167 0.167 0.667 1; 0 0 1 1" calcMode="spline" fill="freeze" dur="4.017s" keyTimes="0; 0.041494; 0.248963; 1" values="M0,0 L512,0 L512,512 L0,512 Z M17.767,-1.687C15.579,-0.625,5.954,13.813,5.954,13.813C5.954,13.813,5.267,8.625,-0.421,10.125C-6.109,11.625,0.267,25.687,6.579,22.625C12.891,19.563,24.954,1.813,24.954,1.813C24.954,1.813,19.955,-2.749,17.767,-1.687Z; M0,0 L512,0 L512,512 L0,512 Z M17.767,-1.687C15.579,-0.625,5.662,12.208,5.662,12.208C5.662,12.208,5.516,14.063,2.308,17.49C-1.296,19.938,0.413,24.333,6.725,21.271C13.037,18.209,24.954,1.813,24.954,1.813C24.954,1.813,19.955,-2.749,17.767,-1.687Z; M0,0 L512,0 L512,512 L0,512 Z M15.767,-2.562C13.579,-1.5,22.142,-8.062,22.142,-8.062C22.142,-8.062,23.588,-7.362,19.642,-3C17.267,-0.375,22.142,5.562,28.454,2.5C34.766,-0.562,24.954,1.813,24.954,1.813C24.954,1.813,17.955,-3.624,15.767,-2.562Z; M0,0 L512,0 L512,512 L0,512 Z M15.767,-2.562C13.579,-1.5,22.142,-8.062,22.142,-8.062C22.142,-8.062,23.588,-7.362,19.642,-3C17.267,-0.375,22.142,5.562,28.454,2.5C34.766,-0.562,24.954,1.813,24.954,1.813C24.954,1.813,17.955,-3.624,15.767,-2.562Z" attributeName="d" /></path></mask><mask id="i2"><rect fill="white" height="100%" width="100%" /><path fill="black" d="M17.767,-1.687C15.579,-0.625,5.954,13.813,5.954,13.813C5.954,13.813,5.267,8.625,-0.421,10.125C-6.109,11.625,0.267,25.687,6.579,22.625C12.891,19.563,24.954,1.813,24.954,1.813C24.954,1.813,19.955,-2.749,17.767,-1.687Z"><animate repeatCount="indefinite" begin="0s" keySplines="0.333 0 0.833 0.833; 0.167 0.167 0.667 1; 0 0 1 1" calcMode="spline" fill="freeze" dur="4.017s" keyTimes="0; 0.041494; 0.248963; 1" values="M0,0 L512,0 L512,512 L0,512 Z M17.767,-1.687C15.579,-0.625,5.954,13.813,5.954,13.813C5.954,13.813,5.267,8.625,-0.421,10.125C-6.109,11.625,0.267,25.687,6.579,22.625C12.891,19.563,24.954,1.813,24.954,1.813C24.954,1.813,19.955,-2.749,17.767,-1.687Z; M0,0 L512,0 L512,512 L0,512 Z M17.767,-1.687C15.579,-0.625,5.662,12.208,5.662,12.208C5.662,12.208,5.516,14.063,2.308,17.49C-1.296,19.938,0.413,24.333,6.725,21.271C13.037,18.209,24.954,1.813,24.954,1.813C24.954,1.813,19.955,-2.749,17.767,-1.687Z; M0,0 L512,0 L512,512 L0,512 Z M15.767,-2.562C13.579,-1.5,22.142,-8.062,22.142,-8.062C22.142,-8.062,23.588,-7.362,19.642,-3C17.267,-0.375,22.142,5.562,28.454,2.5C34.766,-0.562,24.954,1.813,24.954,1.813C24.954,1.813,17.955,-3.624,15.767,-2.562Z; M0,0 L512,0 L512,512 L0,512 Z M15.767,-2.562C13.579,-1.5,22.142,-8.062,22.142,-8.062C22.142,-8.062,23.588,-7.362,19.642,-3C17.267,-0.375,22.142,5.562,28.454,2.5C34.766,-0.562,24.954,1.813,24.954,1.813C24.954,1.813,17.955,-3.624,15.767,-2.562Z" attributeName="d" /></path></mask><mask id="i3"><rect fill="white" height="100%" width="100%" /><path fill="black" d="M17.767,-1.687C15.579,-0.625,5.954,13.813,5.954,13.813C5.954,13.813,5.267,8.625,-0.421,10.125C-6.109,11.625,0.267,25.687,6.579,22.625C12.891,19.563,24.954,1.813,24.954,1.813C24.954,1.813,19.955,-2.749,17.767,-1.687Z"><animate repeatCount="indefinite" begin="0s" keySplines="0.333 0 0.833 0.833; 0.167 0.167 0.667 1; 0 0 1 1" calcMode="spline" fill="freeze" dur="4.017s" keyTimes="0; 0.041494; 0.248963; 1" values="M0,0 L512,0 L512,512 L0,512 Z M17.767,-1.687C15.579,-0.625,5.954,13.813,5.954,13.813C5.954,13.813,5.267,8.625,-0.421,10.125C-6.109,11.625,0.267,25.687,6.579,22.625C12.891,19.563,24.954,1.813,24.954,1.813C24.954,1.813,19.955,-2.749,17.767,-1.687Z; M0,0 L512,0 L512,512 L0,512 Z M17.767,-1.687C15.579,-0.625,5.662,12.208,5.662,12.208C5.662,12.208,5.516,14.063,2.308,17.49C-1.296,19.938,0.413,24.333,6.725,21.271C13.037,18.209,24.954,1.813,24.954,1.813C24.954,1.813,19.955,-2.749,17.767,-1.687Z; M0,0 L512,0 L512,512 L0,512 Z M15.767,-2.562C13.579,-1.5,22.142,-8.062,22.142,-8.062C22.142,-8.062,23.588,-7.362,19.642,-3C17.267,-0.375,22.142,5.562,28.454,2.5C34.766,-0.562,24.954,1.813,24.954,1.813C24.954,1.813,17.955,-3.624,15.767,-2.562Z; M0,0 L512,0 L512,512 L0,512 Z M15.767,-2.562C13.579,-1.5,22.142,-8.062,22.142,-8.062C22.142,-8.062,23.588,-7.362,19.642,-3C17.267,-0.375,22.142,5.562,28.454,2.5C34.766,-0.562,24.954,1.813,24.954,1.813C24.954,1.813,17.955,-3.624,15.767,-2.562Z" attributeName="d" /></path></mask><mask id="i4"><rect fill="white" height="100%" width="100%" /><path fill="black" d="M17.767,-1.687C15.579,-0.625,5.954,13.813,5.954,13.813C5.954,13.813,5.267,8.625,-0.421,10.125C-6.109,11.625,0.267,25.687,6.579,22.625C12.891,19.563,24.954,1.813,24.954,1.813C24.954,1.813,19.955,-2.749,17.767,-1.687Z"><animate repeatCount="indefinite" begin="0s" keySplines="0.333 0 0.833 0.833; 0.167 0.167 0.667 1; 0 0 1 1" calcMode="spline" fill="freeze" dur="4.017s" keyTimes="0; 0.041494; 0.248963; 1" values="M0,0 L512,0 L512,512 L0,512 Z M17.767,-1.687C15.579,-0.625,5.954,13.813,5.954,13.813C5.954,13.813,5.267,8.625,-0.421,10.125C-6.109,11.625,0.267,25.687,6.579,22.625C12.891,19.563,24.954,1.813,24.954,1.813C24.954,1.813,19.955,-2.749,17.767,-1.687Z; M0,0 L512,0 L512,512 L0,512 Z M17.767,-1.687C15.579,-0.625,5.662,12.208,5.662,12.208C5.662,12.208,5.516,14.063,2.308,17.49C-1.296,19.938,0.413,24.333,6.725,21.271C13.037,18.209,24.954,1.813,24.954,1.813C24.954,1.813,19.955,-2.749,17.767,-1.687Z; M0,0 L512,0 L512,512 L0,512 Z M15.767,-2.562C13.579,-1.5,22.142,-8.062,22.142,-8.062C22.142,-8.062,23.588,-7.362,19.642,-3C17.267,-0.375,22.142,5.562,28.454,2.5C34.766,-0.562,24.954,1.813,24.954,1.813C24.954,1.813,17.955,-3.624,15.767,-2.562Z; M0,0 L512,0 L512,512 L0,512 Z M15.767,-2.562C13.579,-1.5,22.142,-8.062,22.142,-8.062C22.142,-8.062,23.588,-7.362,19.642,-3C17.267,-0.375,22.142,5.562,28.454,2.5C34.766,-0.562,24.954,1.813,24.954,1.813C24.954,1.813,17.955,-3.624,15.767,-2.562Z" attributeName="d" /></path></mask><mask id="i5"><rect fill="white" height="100%" width="100%" /><path fill="black" d="M27.382,4.724C10.719,8.945,-4.993,24.935,-4.993,41.849C-4.993,58.763,7.692,63.224,24.882,63.224C32.673,63.224,31.707,37.218,39.043,30.284C44.132,25.474,56.007,18.474,55.132,12.599C52.64,-4.13,36.757,2.349,27.382,4.724Z" /></mask><clipPath id="i6"><path d="M27.382,4.724C10.719,8.945,-4.993,24.935,-4.993,41.849C-4.993,58.763,7.692,63.224,24.882,63.224C32.673,63.224,32.377,36.386,40.418,30.284C46.757,25.474,58.882,17.599,58.007,11.724C55.515,-5.005,36.757,2.349,27.382,4.724Z" /></clipPath><mask id="i7"><rect fill="white" height="100%" width="100%" /><path fill="black" d="M34.572,-1.372C12.134,-1.372,7.885,8.814,7.885,21.378C7.885,30.97,19.885,31.879,25.215,35.147C26.51,37.504,30.092,44.128,34.572,44.128C48.345,44.128,59.51,33.942,59.51,21.378C59.51,8.814,48.345,-1.372,34.572,-1.372Z" /></mask><clipPath id="i8"><path d="M31.072,-0.997C8.634,-0.997,4.385,9.189,4.385,21.753C4.385,31.345,16.385,32.254,21.715,35.522C23.01,37.879,26.592,44.503,31.072,44.503C44.845,44.503,56.01,34.317,56.01,21.753C56.01,9.189,44.845,-0.997,31.072,-0.997Z" /></clipPath></defs><g transform="matrix(1,0,0,1,3.979,135.198)" id="i9"><g id="i10" transform="matrix(1,0,0,1,255.875,156.159)"><path stroke-miterlimit="10" stroke-width="4" stroke="#e4e4e4" d="M222.481,22.16C245.875,64.022,212.023,146.158,-2.666,89.076C-110.308,60.456,-190.712,124.929,-207.281,79.927C-245.875,-24.9,-88.263,-146.159,-0.617,-61.502C79.496,15.88,179.903,-54.032,222.481,22.16Z" /></g></g><g transform="matrix(1,0,0,1,43.108,225.909)" id="i11"><g id="i10" transform="matrix(1,0,0,1,219.122,90.003)"><path fill="#f6f5f5" d="M218.873,89.753C218.873,89.753,-218.872,89.753,-218.872,89.753C-205.172,-11.462,-112.414,-89.753,-0.001,-89.753C112.404,-89.753,205.173,-11.462,218.873,89.753Z" /></g></g><g transform="matrix(1,0,0,1,245.263,140.588)" id="i12"><g id="i10" transform="matrix(1,0,0,1,96.454,132.219)"><path fill="#a9bae6" d="M21.88,131.969C21.88,131.969,-21.88,131.969,-21.88,131.969C-62.928,131.969,-96.204,98.693,-96.204,57.644C-96.204,57.644,-96.204,-57.643,-96.204,-57.643C-96.204,-98.692,-62.928,-131.968,-21.88,-131.968C-21.88,-131.968,21.88,-131.968,21.88,-131.968C62.928,-131.968,96.204,-98.692,96.204,-57.643C96.204,-57.643,96.204,57.644,96.204,57.644C96.204,98.693,62.928,131.969,21.88,131.969Z" /></g></g><g transform="matrix(1,0,0,1,254.183,151.226)" id="i13"><g id="i14" transform="matrix(1,0,0,1,88.202,115.273)"><path fill="#f6f5f5" d="M79.184,115.023C79.184,115.023,-79.184,115.023,-79.184,115.023C-79.184,115.023,-79.184,-115.023,-79.184,-115.023C-79.184,-115.023,79.184,-115.023,79.184,-115.023C79.184,-115.023,79.184,115.023,79.184,115.023Z" /></g><g id="i15" transform="matrix(1,0,0,1,89.674,114.162)"><path fill="#e4e4e4" d="M77.712,-113.91C77.762,-24.204,80.657,83.986,70.581,107.94C26.197,112.264,-25.77,113.652,-80.657,113.91C-80.657,113.91,-59.794,-113.217,-59.794,-113.217C-59.794,-113.217,77.712,-113.91,77.712,-113.91Z" /></g><g id="i10" transform="matrix(1,0,0,1,84.646,113.385)"><path fill="#ffffff" d="M68.515,101.467C-0.663,112.538,-46.897,113.122,-84.396,110.338C-79.537,58.609,-77.589,-27.325,-75.63,-113.122C-75.63,-113.122,7.731,-112.938,7.731,-112.938C7.731,-112.938,83.176,-107.958,83.176,-107.958C84.276,-18.909,84.396,63.346,68.515,101.467Z" /></g></g><g transform="matrix(1,0,0,1,298.742,172.441)" id="i16"><g id="i10" transform="matrix(1,0,0,1,42.055,7.575)"><path fill="#708cd5" d="M41.506,7.325C41.506,7.325,-41.805,5.365,-41.805,5.365C-41.805,5.365,-41.506,-7.325,-41.506,-7.325C-41.506,-7.325,41.805,-5.365,41.805,-5.365C41.805,-5.365,41.506,7.325,41.506,7.325Z" /></g></g><g id="i17"><animate repeatCount="indefinite" attributeName="opacity" dur="4.017s" begin="0s" fill="freeze" values="1; 1; 0; 0" keyTimes="0; 0.871369; 0.954357; 1" keySplines="0 0 1 1; 0.333 0 0.667 1; 0 0 1 1" calcMode="spline" /><g transform="translate(323.38,207.725)"><g transform="scale(0,1)"><animateTransform repeatCount="indefinite" type="scale" attributeName="transform" dur="4.017s" begin="0s" calcMode="spline" values="0 1; 1 1; 1 1" keyTimes="0; 0.248963; 1" keySplines="0.333 0 0 1; 0 0 1 1" fill="freeze" /><g transform="translate(-0.25,-4.039)"><g id="i10" transform="matrix(1,0,0,1,37.891,4.039)"><path fill="#708cd5" d="M37.641,-2.02C37.641,-2.02,-37.505,-3.788,-37.505,-3.788C-37.505,-3.788,-37.641,2.02,-37.641,2.02C-37.641,2.02,37.504,3.788,37.504,3.788C37.504,3.788,37.641,-2.02,37.641,-2.02Z" /></g></g></g></g></g><g visibility="hidden" id="i18"><animate repeatCount="indefinite" begin="0s" calcMode="discrete" dur="4.017s" values="hidden; visible; visible" keyTimes="0; 0.012001; 1" attributeName="visibility" /><animate repeatCount="indefinite" attributeName="opacity" dur="4.017s" begin="0s" fill="freeze" values="1; 1; 0; 0" keyTimes="0; 0.871369; 0.954357; 1" keySplines="0 0 1 1; 0.333 0 0.667 1; 0 0 1 1" calcMode="spline" /><g transform="translate(323.081,220.106)"><g transform="scale(0,1)"><animateTransform repeatCount="indefinite" type="scale" attributeName="transform" dur="4.017s" begin="0s" calcMode="spline" values="0 1; 0 1; 1 1; 1 1" keyTimes="0; 0.012448; 0.261411; 1" keySplines="0 0 1 1; 0.333 0 0 1; 0 0 1 1" fill="freeze" /><g transform="translate(-0.25,-3.755)"><g id="i10" transform="matrix(1,0,0,1,25.857,3.755)"><path fill="#d3dfff" d="M25.608,-2.303C25.608,-2.303,-25.47,-3.505,-25.47,-3.505C-25.47,-3.505,-25.608,2.303,-25.608,2.303C-25.608,2.303,25.47,3.505,25.47,3.505C25.47,3.505,25.608,-2.303,25.608,-2.303Z" /></g></g></g></g></g><g id="i19"><animate repeatCount="indefinite" attributeName="opacity" dur="4.017s" begin="0s" fill="freeze" values="1; 1; 0; 0" keyTimes="0; 0.871369; 0.954357; 1" keySplines="0 0 1 1; 0.333 0 0.667 1; 0 0 1 1" calcMode="spline" /><g transform="translate(290.733,212.407)"><g transform="scale(0,0)"><animateTransform repeatCount="indefinite" type="scale" attributeName="transform" dur="4.017s" begin="0s" calcMode="spline" values="0 0; 1.2 1.2; 0.9 0.9; 1 1; 1 1" keyTimes="0; 0.082988; 0.124481; 0.145228; 1" keySplines="0.333 0 0.667 1; 0.333 0 0.667 1; 0.333 0 0.667 1; 0 0 1 1" fill="freeze" /><g transform="translate(-24.104,-24.104)"><g id="i10" transform="matrix(1,0,0,1,24.104,24.104)"><path stroke-miterlimit="10" stroke-width="6" stroke="#708cd5" fill="#ffffff" d="M8.686,9.104C8.686,9.104,-9.104,8.685,-9.104,8.685C-9.104,8.685,-8.685,-9.104,-8.685,-9.104C-8.685,-9.104,9.104,-8.686,9.104,-8.686C9.104,-8.686,8.686,9.104,8.686,9.104Z" /></g></g></g></g></g><g id="i20"><animate repeatCount="indefinite" attributeName="opacity" dur="4.017s" begin="0s" fill="freeze" values="1; 1; 0; 0" keyTimes="0; 0.871369; 0.954357; 1" keySplines="0 0 1 1; 0.333 0 0.667 1; 0 0 1 1" calcMode="spline" /><g transform="translate(322.618,239.907)"><g transform="scale(0,1)"><animateTransform repeatCount="indefinite" type="scale" attributeName="transform" dur="4.017s" begin="0s" calcMode="spline" values="0 1; 1 1; 1 1" keyTimes="0; 0.248963; 1" keySplines="0.333 0 0 1; 0 0 1 1" fill="freeze" /><g transform="translate(-0.25,-3.883)"><g id="i10" transform="matrix(1,0,0,1,31.259,3.883)"><path fill="#708cd5" d="M31.01,-2.176C31.01,-2.176,-30.873,-3.632,-30.873,-3.632C-30.873,-3.632,-31.01,2.176,-31.01,2.176C-31.01,2.176,30.872,3.632,30.872,3.632C30.872,3.632,31.01,-2.176,31.01,-2.176Z" /></g></g></g></g></g><g id="i21"><animate repeatCount="indefinite" attributeName="opacity" dur="4.017s" begin="0s" fill="freeze" values="1; 1; 0; 0" keyTimes="0; 0.871369; 0.954357; 1" keySplines="0 0 1 1; 0.333 0 0.667 1; 0 0 1 1" calcMode="spline" /><g transform="translate(322.32,252.729)"><g transform="scale(0,1)"><animateTransform repeatCount="indefinite" type="scale" attributeName="transform" dur="4.017s" begin="0s" calcMode="spline" values="0 1; 1 1; 1 1" keyTimes="0; 0.248963; 1" keySplines="0.333 0 0 1; 0 0 1 1" fill="freeze" /><g transform="translate(-0.25,-4.039)"><g id="i10" transform="matrix(1,0,0,1,37.891,4.039)"><path fill="#d3dfff" d="M37.641,-2.02C37.641,-2.02,-37.505,-3.789,-37.505,-3.789C-37.505,-3.789,-37.641,2.02,-37.641,2.02C-37.641,2.02,37.504,3.789,37.504,3.789C37.504,3.789,37.641,-2.02,37.641,-2.02Z" /></g></g></g></g></g><g visibility="hidden" id="i22"><animate repeatCount="indefinite" begin="0s" calcMode="discrete" dur="4.017s" values="hidden; visible; visible" keyTimes="0; 0.021002; 1" attributeName="visibility" /><animate repeatCount="indefinite" attributeName="opacity" dur="4.017s" begin="0s" fill="freeze" values="1; 1; 0; 0" keyTimes="0; 0.871369; 0.954357; 1" keySplines="0 0 1 1; 0.333 0 0.667 1; 0 0 1 1" calcMode="spline" /><g transform="translate(289.972,244.749)"><g transform="scale(0,0)"><animateTransform repeatCount="indefinite" type="scale" attributeName="transform" dur="4.017s" begin="0s" calcMode="spline" values="0 0; 0 0; 1.2 1.2; 0.9 0.9; 1 1; 1 1" keyTimes="0; 0.020747; 0.103734; 0.145228; 0.165975; 1" keySplines="0 0 1 1; 0.333 0 0.667 1; 0.333 0 0.667 1; 0.333 0 0.667 1; 0 0 1 1" fill="freeze" /><g transform="translate(-24.104,-24.104)"><g id="i10" transform="matrix(1,0,0,1,24.104,24.104)"><path stroke-miterlimit="10" stroke-width="6" stroke="#708cd5" fill="#ffffff" d="M8.686,9.104C8.686,9.104,-9.104,8.686,-9.104,8.686C-9.104,8.686,-8.685,-9.104,-8.685,-9.104C-8.685,-9.104,9.104,-8.686,9.104,-8.686C9.104,-8.686,8.686,9.104,8.686,9.104Z" /></g></g></g></g></g><g visibility="hidden" id="i23"><animate repeatCount="indefinite" begin="0s" calcMode="discrete" dur="4.017s" values="hidden; visible; visible" keyTimes="0; 0.021002; 1" attributeName="visibility" /><animate repeatCount="indefinite" attributeName="opacity" dur="4.017s" begin="0s" fill="freeze" values="1; 1; 0; 0" keyTimes="0; 0.871369; 0.954357; 1" keySplines="0 0 1 1; 0.333 0 0.667 1; 0 0 1 1" calcMode="spline" /><g transform="translate(321.858,272.41)"><g transform="scale(0,1)"><animateTransform repeatCount="indefinite" type="scale" attributeName="transform" dur="4.017s" begin="0s" calcMode="spline" values="0 1; 0 1; 1 1; 1 1" keyTimes="0; 0.020747; 0.269709; 1" keySplines="0 0 1 1; 0.333 0 0 1; 0 0 1 1" fill="freeze" /><g transform="translate(-0.25,-4.039)"><g id="i10" transform="matrix(1,0,0,1,37.891,4.039)"><path fill="#708cd5" d="M37.641,-2.02C37.641,-2.02,-37.505,-3.789,-37.505,-3.789C-37.505,-3.789,-37.641,2.02,-37.641,2.02C-37.641,2.02,37.504,3.789,37.504,3.789C37.504,3.789,37.641,-2.02,37.641,-2.02Z" /></g></g></g></g></g><g visibility="hidden" id="i24"><animate repeatCount="indefinite" begin="0s" calcMode="discrete" dur="4.017s" values="hidden; visible; visible" keyTimes="0; 0.033003; 1" attributeName="visibility" /><animate repeatCount="indefinite" attributeName="opacity" dur="4.017s" begin="0s" fill="freeze" values="1; 1; 0; 0" keyTimes="0; 0.871369; 0.954357; 1" keySplines="0 0 1 1; 0.333 0 0.667 1; 0 0 1 1" calcMode="spline" /><g transform="translate(321.56,284.586)"><g transform="scale(0,1)"><animateTransform repeatCount="indefinite" type="scale" attributeName="transform" dur="4.017s" begin="0s" calcMode="spline" values="0 1; 0 1; 1 1; 1 1" keyTimes="0; 0.033195; 0.282158; 1" keySplines="0 0 1 1; 0.333 0 0 1; 0 0 1 1" fill="freeze" /><g transform="translate(-0.25,-3.55)"><g id="i10" transform="matrix(1,0,0,1,17.122,3.55)"><path fill="#d3dfff" d="M16.872,-2.509C16.872,-2.509,-16.735,-3.299,-16.735,-3.299C-16.735,-3.299,-16.872,2.509,-16.872,2.509C-16.872,2.509,16.734,3.299,16.734,3.299C16.734,3.299,16.872,-2.509,16.872,-2.509Z" /></g></g></g></g></g><g visibility="hidden" id="i25"><animate repeatCount="indefinite" begin="0s" calcMode="discrete" dur="4.017s" values="hidden; visible; visible" keyTimes="0; 0.041003; 1" attributeName="visibility" /><animate repeatCount="indefinite" attributeName="opacity" dur="4.017s" begin="0s" fill="freeze" values="1; 1; 0; 0" keyTimes="0; 0.871369; 0.954357; 1" keySplines="0 0 1 1; 0.333 0 0.667 1; 0 0 1 1" calcMode="spline" /><g transform="translate(289.212,277.091)"><g transform="scale(0,0)"><animateTransform repeatCount="indefinite" type="scale" attributeName="transform" dur="4.017s" begin="0s" calcMode="spline" values="0 0; 0 0; 1.2 1.2; 0.9 0.9; 1 1; 1 1" keyTimes="0; 0.041494; 0.124481; 0.165975; 0.186722; 1" keySplines="0 0 1 1; 0.333 0 0.667 1; 0.333 0 0.667 1; 0.333 0 0.667 1; 0 0 1 1" fill="freeze" /><g transform="translate(-24.104,-24.104)"><g id="i10" transform="matrix(1,0,0,1,24.104,24.104)"><path stroke-miterlimit="10" stroke-width="6" stroke="#708cd5" fill="#ffffff" d="M8.685,9.104C8.685,9.104,-9.104,8.686,-9.104,8.686C-9.104,8.686,-8.686,-9.104,-8.686,-9.104C-8.686,-9.104,9.104,-8.685,9.104,-8.685C9.104,-8.685,8.685,9.104,8.685,9.104Z" /></g></g></g></g></g><g visibility="hidden" id="i26"><animate repeatCount="indefinite" begin="0s" calcMode="discrete" dur="4.017s" values="hidden; visible; visible" keyTimes="0; 0.041003; 1" attributeName="visibility" /><animate repeatCount="indefinite" attributeName="opacity" dur="4.017s" begin="0s" fill="freeze" values="1; 1; 0; 0" keyTimes="0; 0.871369; 0.954357; 1" keySplines="0 0 1 1; 0.333 0 0.667 1; 0 0 1 1" calcMode="spline" /><g transform="translate(321.096,304.752)"><g transform="scale(0,1)"><animateTransform repeatCount="indefinite" type="scale" attributeName="transform" dur="4.017s" begin="0s" calcMode="spline" values="0 1; 0 1; 1 1; 1 1" keyTimes="0; 0.041494; 0.290457; 1" keySplines="0 0 1 1; 0.333 0 0 1; 0 0 1 1" fill="freeze" /><g transform="translate(-0.25,-4.039)"><g id="i10" transform="matrix(1,0,0,1,37.891,4.039)"><path fill="#708cd5" d="M37.642,-2.02C37.642,-2.02,-37.505,-3.789,-37.505,-3.789C-37.505,-3.789,-37.642,2.02,-37.642,2.02C-37.642,2.02,37.504,3.789,37.504,3.789C37.504,3.789,37.642,-2.02,37.642,-2.02Z" /></g></g></g></g></g><g visibility="hidden" id="i27"><animate repeatCount="indefinite" begin="0s" calcMode="discrete" dur="4.017s" values="hidden; visible; visible" keyTimes="0; 0.054004; 1" attributeName="visibility" /><animate repeatCount="indefinite" attributeName="opacity" dur="4.017s" begin="0s" fill="freeze" values="1; 1; 0; 0" keyTimes="0; 0.871369; 0.954357; 1" keySplines="0 0 1 1; 0.333 0 0.667 1; 0 0 1 1" calcMode="spline" /><g transform="translate(320.798,317.231)"><g transform="scale(0,1)"><animateTransform repeatCount="indefinite" type="scale" attributeName="transform" dur="4.017s" begin="0s" calcMode="spline" values="0 1; 0 1; 1 1; 1 1" keyTimes="0; 0.053942; 0.302905; 1" keySplines="0 0 1 1; 0.333 0 0 1; 0 0 1 1" fill="freeze" /><g transform="translate(-0.25,-3.853)"><g id="i10" transform="matrix(1,0,0,1,29.999,3.853)"><path fill="#d3dfff" d="M29.75,-2.206C29.75,-2.206,-29.612,-3.603,-29.612,-3.603C-29.612,-3.603,-29.75,2.205,-29.75,2.205C-29.75,2.205,29.612,3.603,29.612,3.603C29.612,3.603,29.75,-2.206,29.75,-2.206Z" /></g></g></g></g></g><g visibility="hidden" id="i28"><animate repeatCount="indefinite" begin="0s" calcMode="discrete" dur="4.017s" values="hidden; visible; visible" keyTimes="0; 0.062005; 1" attributeName="visibility" /><animate repeatCount="indefinite" attributeName="opacity" dur="4.017s" begin="0s" fill="freeze" values="1; 1; 0; 0" keyTimes="0; 0.871369; 0.954357; 1" keySplines="0 0 1 1; 0.333 0 0.667 1; 0 0 1 1" calcMode="spline" /><g transform="translate(288.45,309.434)"><g transform="scale(0,0)"><animateTransform repeatCount="indefinite" type="scale" attributeName="transform" dur="4.017s" begin="0s" calcMode="spline" values="0 0; 0 0; 1.2 1.2; 0.9 0.9; 1 1; 1 1" keyTimes="0; 0.062241; 0.145228; 0.186722; 0.207469; 1" keySplines="0 0 1 1; 0.333 0 0.667 1; 0.333 0 0.667 1; 0.333 0 0.667 1; 0 0 1 1" fill="freeze" /><g transform="translate(-24.104,-24.104)"><g id="i10" transform="matrix(1,0,0,1,24.104,24.104)"><path stroke-miterlimit="10" stroke-width="6" stroke="#708cd5" fill="#ffffff" d="M8.686,9.104C8.686,9.104,-9.104,8.685,-9.104,8.685C-9.104,8.685,-8.685,-9.104,-8.685,-9.104C-8.685,-9.104,9.104,-8.686,9.104,-8.686C9.104,-8.686,8.686,9.104,8.686,9.104Z" /></g></g></g></g></g><g visibility="hidden" id="i29"><animate repeatCount="indefinite" begin="0s" calcMode="discrete" dur="4.017s" values="hidden; visible; visible" keyTimes="0; 0.062005; 1" attributeName="visibility" /><animate repeatCount="indefinite" attributeName="opacity" dur="4.017s" begin="0s" fill="freeze" values="1; 1; 0; 0" keyTimes="0; 0.871369; 0.954357; 1" keySplines="0 0 1 1; 0.333 0 0.667 1; 0 0 1 1" calcMode="spline" /><g transform="translate(320.341,336.317)"><g transform="scale(0,1)"><animateTransform repeatCount="indefinite" type="scale" attributeName="transform" dur="4.017s" begin="0s" calcMode="spline" values="0 1; 0 1; 1 1; 1 1" keyTimes="0; 0.062241; 0.311203; 1" keySplines="0 0 1 1; 0.333 0 0 1; 0 0 1 1" fill="freeze" /><g transform="translate(-0.25,-3.505)"><g id="i10" transform="matrix(1,0,0,1,15.212,3.505)"><path fill="#708cd5" d="M14.962,-2.554C14.962,-2.554,-14.825,-3.255,-14.825,-3.255C-14.825,-3.255,-14.962,2.553,-14.962,2.553C-14.962,2.553,14.825,3.255,14.825,3.255C14.825,3.255,14.962,-2.554,14.962,-2.554Z" /></g></g></g></g></g><g visibility="hidden" id="i30"><animate repeatCount="indefinite" begin="0s" calcMode="discrete" dur="4.017s" values="hidden; visible; visible" keyTimes="0; 0.075006; 1" attributeName="visibility" /><animate repeatCount="indefinite" attributeName="opacity" dur="4.017s" begin="0s" fill="freeze" values="1; 1; 0; 0" keyTimes="0; 0.871369; 0.954357; 1" keySplines="0 0 1 1; 0.333 0 0.667 1; 0 0 1 1" calcMode="spline" /><g transform="translate(320.043,349.298)"><g transform="scale(0,1)"><animateTransform repeatCount="indefinite" type="scale" attributeName="transform" dur="4.017s" begin="0s" calcMode="spline" values="0 1; 0 1; 1 1; 1 1" keyTimes="0; 0.074689; 0.323651; 1" keySplines="0 0 1 1; 0.333 0 0 1; 0 0 1 1" fill="freeze" /><g transform="translate(-0.25,-3.822)"><g id="i10" transform="matrix(1,0,0,1,37.954,4.177)"><path fill="#d3dfff" d="M37.578,-2.158C37.578,-2.158,-37.568,-3.927,-37.568,-3.927C-37.568,-3.927,-37.704,1.882,-37.704,1.882C-8.632,2.565,28.387,3.927,35.939,2.768C37.086,1.464,37.704,-0.137,37.578,-2.158Z" /></g></g></g></g></g><g visibility="hidden" id="i31"><animate repeatCount="indefinite" begin="0s" calcMode="discrete" dur="4.017s" values="hidden; visible; visible" keyTimes="0; 0.083007; 1" attributeName="visibility" /><animate repeatCount="indefinite" attributeName="opacity" dur="4.017s" begin="0s" fill="freeze" values="1; 1; 0; 0" keyTimes="0; 0.871369; 0.954357; 1" keySplines="0 0 1 1; 0.333 0 0.667 1; 0 0 1 1" calcMode="spline" /><g transform="translate(287.943,341.538)"><g transform="scale(0,0)"><animateTransform repeatCount="indefinite" type="scale" attributeName="transform" dur="4.017s" begin="0s" calcMode="spline" values="0 0; 0 0; 1.2 1.2; 0.9 0.9; 1 1; 1 1" keyTimes="0; 0.082987; 0.165975; 0.207469; 0.228216; 1" keySplines="0 0 1 1; 0.333 0 0.667 1; 0.333 0 0.667 1; 0.333 0 0.667 1; 0 0 1 1" fill="freeze" /><g transform="translate(-24.104,-24.104)"><g id="i10" transform="matrix(1,0,0,1,24.104,24.104)"><path stroke-miterlimit="10" stroke-width="6" stroke="#708cd5" fill="#ffffff" d="M8.686,9.104C8.686,9.104,-9.104,8.685,-9.104,8.685C-9.104,8.685,-8.685,-9.104,-8.685,-9.104C-8.685,-9.104,9.104,-8.685,9.104,-8.685C9.104,-8.685,8.686,9.104,8.686,9.104Z" /></g></g></g></g></g><g visibility="hidden" id="i32"><animate repeatCount="indefinite" begin="0s" calcMode="discrete" dur="4.017s" values="hidden; visible; visible" keyTimes="0; 0.295024; 1" attributeName="visibility" /><animate repeatCount="indefinite" attributeName="opacity" dur="4.017s" begin="0s" fill="freeze" values="1; 1; 0; 0" keyTimes="0; 0.871369; 0.954357; 1" keySplines="0 0 1 1; 0.333 0 0.667 1; 0 0 1 1" calcMode="spline" /><g transform="translate(292.753,337.207) scale(1,1) translate(-11.27,-11.333)"><g mask="url(#i0)" id="i33"><g id="i10" transform="matrix(1,0,0,1,11.27,11.333)"><path fill="#ee6f57" d="M-10.605,0.171C-10.055,2.274,-9.041,11.082,-4.63,8.618C-3.613,8.051,-2.751,6.55,-1.991,5.687C-0.624,4.134,0.745,2.581,2.113,1.027C4.848,-2.078,7.583,-5.183,10.319,-8.29C11.02,-9.086,7.924,-11.082,7.044,-10.083C7.044,-10.083,-0.251,-1.801,-0.251,-1.801C-1.466,-0.42,-2.682,0.959,-3.898,2.34C-4.742,3.298,-6.693,6.387,-7.945,6.661C-7.264,6.881,-6.583,7.102,-5.902,7.322C-5.421,7.717,-6.315,4.918,-6.334,4.842C-6.674,3.542,-7.013,2.244,-7.353,0.945C-7.633,-0.128,-11.02,-1.419,-10.605,0.171Z" /></g></g></g></g><g visibility="hidden" id="i34"><animate repeatCount="indefinite" begin="0s" calcMode="discrete" dur="4.017s" values="hidden; visible; visible" keyTimes="0; 0.253021; 1" attributeName="visibility" /><animate repeatCount="indefinite" attributeName="opacity" dur="4.017s" begin="0s" fill="freeze" values="1; 1; 0; 0" keyTimes="0; 0.871369; 0.954357; 1" keySplines="0 0 1 1; 0.333 0 0.667 1; 0 0 1 1" calcMode="spline" /><g transform="translate(293.003,305.332) scale(1,1) translate(-11.27,-11.333)"><g mask="url(#i1)" id="i35"><g id="i10" transform="matrix(1,0,0,1,11.27,11.333)"><path fill="#ee6f57" d="M-10.605,0.171C-10.055,2.274,-9.041,11.082,-4.63,8.618C-3.613,8.051,-2.751,6.55,-1.991,5.687C-0.624,4.134,0.745,2.581,2.113,1.027C4.848,-2.078,7.583,-5.183,10.319,-8.29C11.02,-9.086,7.924,-11.082,7.044,-10.083C7.044,-10.083,-0.251,-1.801,-0.251,-1.801C-1.466,-0.42,-2.682,0.959,-3.898,2.34C-4.742,3.298,-6.693,6.387,-7.945,6.661C-7.264,6.881,-6.583,7.102,-5.902,7.322C-5.421,7.717,-6.315,4.918,-6.334,4.842C-6.674,3.542,-7.013,2.244,-7.353,0.945C-7.633,-0.128,-11.02,-1.419,-10.605,0.171Z" /></g></g></g></g><g visibility="hidden" id="i36"><animate repeatCount="indefinite" begin="0s" calcMode="discrete" dur="4.017s" values="hidden; visible; visible" keyTimes="0; 0.212018; 1" attributeName="visibility" /><animate repeatCount="indefinite" attributeName="opacity" dur="4.017s" begin="0s" fill="freeze" values="1; 1; 0; 0" keyTimes="0; 0.871369; 0.954357; 1" keySplines="0 0 1 1; 0.333 0 0.667 1; 0 0 1 1" calcMode="spline" /><g transform="translate(293.378,273.332) scale(1,1) translate(-11.27,-11.333)"><g mask="url(#i2)" id="i37"><g id="i10" transform="matrix(1,0,0,1,11.27,11.333)"><path fill="#ee6f57" d="M-10.605,0.171C-10.055,2.274,-9.041,11.082,-4.63,8.618C-3.613,8.051,-2.751,6.55,-1.991,5.687C-0.624,4.134,0.745,2.581,2.113,1.027C4.848,-2.078,7.583,-5.183,10.319,-8.29C11.02,-9.086,7.924,-11.082,7.044,-10.083C7.044,-10.083,-0.251,-1.801,-0.251,-1.801C-1.466,-0.42,-2.682,0.959,-3.898,2.34C-4.742,3.298,-6.693,6.387,-7.945,6.661C-7.264,6.881,-6.583,7.102,-5.902,7.322C-5.421,7.717,-6.315,4.918,-6.334,4.842C-6.674,3.542,-7.013,2.244,-7.353,0.945C-7.633,-0.128,-11.02,-1.419,-10.605,0.171Z" /></g></g></g></g><g visibility="hidden" id="i38"><animate repeatCount="indefinite" begin="0s" calcMode="discrete" dur="4.017s" values="hidden; visible; visible" keyTimes="0; 0.170014; 1" attributeName="visibility" /><animate repeatCount="indefinite" attributeName="opacity" dur="4.017s" begin="0s" fill="freeze" values="1; 1; 0; 0" keyTimes="0; 0.871369; 0.954357; 1" keySplines="0 0 1 1; 0.333 0 0.667 1; 0 0 1 1" calcMode="spline" /><g transform="translate(293.753,240.957) scale(1,1) translate(-11.27,-11.333)"><g mask="url(#i3)" id="i39"><g id="i10" transform="matrix(1,0,0,1,11.27,11.333)"><path fill="#ee6f57" d="M-10.605,0.171C-10.055,2.274,-9.041,11.082,-4.63,8.618C-3.613,8.051,-2.751,6.55,-1.991,5.687C-0.624,4.134,0.745,2.581,2.113,1.027C4.848,-2.078,7.583,-5.183,10.319,-8.29C11.02,-9.086,7.924,-11.082,7.044,-10.083C7.044,-10.083,-0.251,-1.801,-0.251,-1.801C-1.466,-0.42,-2.682,0.959,-3.898,2.34C-4.742,3.298,-6.693,6.387,-7.945,6.661C-7.264,6.881,-6.583,7.102,-5.902,7.322C-5.421,7.717,-6.315,4.918,-6.334,4.842C-6.674,3.542,-7.013,2.244,-7.353,0.945C-7.633,-0.128,-11.02,-1.419,-10.605,0.171Z" /></g></g></g></g><g visibility="hidden" id="i40"><animate repeatCount="indefinite" begin="0s" calcMode="discrete" dur="4.017s" values="hidden; visible; visible" keyTimes="0; 0.129011; 1" attributeName="visibility" /><animate repeatCount="indefinite" attributeName="opacity" dur="4.017s" begin="0s" fill="freeze" values="1; 1; 0; 0" keyTimes="0; 0.871369; 0.954357; 1" keySplines="0 0 1 1; 0.333 0 0.667 1; 0 0 1 1" calcMode="spline" /><g transform="translate(294.753,208.207) scale(1,1) translate(-11.27,-11.333)"><g mask="url(#i4)" id="i41"><g id="i10" transform="matrix(1,0,0,1,11.27,11.333)"><path fill="#ee6f57" d="M-10.605,0.171C-10.055,2.274,-9.041,11.082,-4.63,8.618C-3.613,8.051,-2.751,6.55,-1.991,5.687C-0.624,4.134,0.745,2.581,2.113,1.027C4.848,-2.078,7.583,-5.183,10.319,-8.29C11.02,-9.086,7.924,-11.082,7.044,-10.083C7.044,-10.083,-0.251,-1.801,-0.251,-1.801C-1.466,-0.42,-2.682,0.959,-3.898,2.34C-4.742,3.298,-6.693,6.387,-7.945,6.661C-7.264,6.881,-6.583,7.102,-5.902,7.322C-5.421,7.717,-6.315,4.918,-6.334,4.842C-6.674,3.542,-7.013,2.244,-7.353,0.945C-7.633,-0.128,-11.02,-1.419,-10.605,0.171Z" /></g></g></g></g><g id="i42"><animate repeatCount="indefinite" attributeName="opacity" dur="4.017s" begin="0s" fill="freeze" values="1; 1; 0; 0" keyTimes="0; 0.871369; 0.954357; 1" keySplines="0 0 1 1; 0.333 0 0.667 1; 0 0 1 1" calcMode="spline" /><g transform="translate(341.716,139.837)"><g transform="scale(0,0)"><animateTransform repeatCount="indefinite" type="scale" attributeName="transform" dur="4.017s" begin="0s" calcMode="spline" values="0 0; 1 1; 1 1" keyTimes="0; 0.082987; 1" keySplines="0.333 0 0 1; 0 0 1 1" fill="freeze" /><g transform="translate(-41.707,-25.087)"><g id="i14" transform="matrix(1,0,0,1,41.707,22.846)"><path fill="#ee6f57" d="M35.668,4.841C35.668,4.841,35.668,22.596,35.668,22.596C35.668,22.596,-35.668,22.596,-35.668,22.596C-35.668,22.596,-35.668,4.841,-35.668,4.841C-35.668,2.01,-34.518,-0.553,-32.665,-2.412C-32.434,-2.644,-32.194,-2.861,-31.94,-3.062C-30.171,-4.534,-27.893,-5.415,-25.412,-5.415C-23.553,-5.415,-21.767,-5.841,-20.168,-6.61C-19.474,-6.947,-18.816,-7.343,-18.196,-7.798C-16.157,-9.307,-14.596,-11.451,-13.819,-14.006C-13.027,-16.613,-11.406,-18.794,-9.308,-20.31C-7.29,-21.759,-4.833,-22.596,-2.226,-22.596C-2.226,-22.596,2.226,-22.596,2.226,-22.596C4.833,-22.596,7.29,-21.759,9.308,-20.31C11.406,-18.794,13.027,-16.613,13.819,-14.006C14.596,-11.451,16.157,-9.307,18.196,-7.798C18.816,-7.343,19.474,-6.947,20.168,-6.61C21.767,-5.841,23.552,-5.415,25.412,-5.415C27.893,-5.415,30.171,-4.534,31.94,-3.062C34.219,-1.187,35.668,1.659,35.668,4.841Z" /></g><g id="i15" transform="matrix(1,0,0,1,41.707,43.325)"><path fill="#e4e4e4" d="M41.457,-6.6C41.457,-6.6,41.457,6.6,41.457,6.6C41.457,6.6,-41.457,6.6,-41.457,6.6C-41.457,6.6,-41.457,-6.6,-41.457,-6.6C-41.457,-6.6,-35.668,-6.6,-35.668,-6.6C-35.668,-6.6,-35.668,2.118,-35.668,2.118C-35.668,2.118,35.668,2.118,35.668,2.118C35.668,2.118,35.668,-6.6,35.668,-6.6C35.668,-6.6,41.457,-6.6,41.457,-6.6Z" /></g><g id="i10" transform="matrix(1,0,0,1,41.708,10.894)"><path fill="#ffffff" d="M6.327,0C6.327,3.321,3.494,6.014,0,6.014C-3.494,6.014,-6.327,3.321,-6.327,0C-6.327,-3.321,-3.494,-6.014,0,-6.014C3.494,-6.014,6.327,-3.321,6.327,0Z" /></g></g></g></g></g><g id="i43"><g transform="translate(174.212,217.988)"><g transform="rotate(0)"><animateTransform repeatCount="indefinite" type="rotate" attributeName="transform" dur="4.017s" begin="0s" calcMode="spline" values="0; 5; 0; 5; 0; 0" keyTimes="0; 0.248963; 0.497925; 0.746888; 0.995851; 1" keySplines="0.333 0 0.667 1; 0.333 0 0.667 1; 0.167 0 0.667 1; 0.333 0 0.667 1; 0 0 1 1" fill="freeze" /><g transform="scale(1,1) translate(-12.347,-15.367)"><g id="i44"><g transform="translate(43.787,15.044)"><g transform="rotate(0)"><animateTransform repeatCount="indefinite" type="rotate" attributeName="transform" dur="4.017s" begin="0s" calcMode="spline" values="0; 5; 0; 5; 0; 0" keyTimes="0; 0.248963; 0.497925; 0.746888; 0.995851; 1" keySplines="0.333 0 0.667 1; 0.333 0 0.667 1; 0.167 0 0.667 1; 0.333 0 0.667 1; 0 0 1 1" fill="freeze" /><g transform="scale(1,1) translate(-6.88,-31.525)"><g id="i15" transform="matrix(1,0,0,1,9.442,12.132)"><path fill="#f9b384" d="M-3.211,10.498C-5.741,10.019,-8.106,5.792,-8.928,4.171C-9.129,3.773,-9.192,3.323,-9.11,2.885C-9.11,2.885,-8.103,-2.453,-8.103,-2.453C-8.103,-2.453,-5.779,-2.058,-5.959,1.037C-5.978,1.357,-5.912,1.678,-5.797,1.978C-5.797,1.978,-4.907,4.306,-4.907,4.306C-4.907,4.306,-2.278,2.269,-2.278,2.269C-2.278,2.269,-3.72,-1.802,-3.72,-1.802C-3.72,-1.802,-5.649,-1.272,-6.647,-1.59C-8.692,-2.243,-6.01,-3.838,-5.162,-4.008C-4.314,-4.177,-2.447,-4.856,-1.599,-3.414C-0.751,-1.972,-0.242,-1.124,-0.242,-1.124C-0.242,-1.124,0.691,-4.347,0.055,-11.558C0.026,-11.882,0.839,-11.875,1.068,-11.643C1.751,-10.948,2.839,-8.832,2.897,-2.396C2.897,-2.396,3.011,-9.896,4.297,-10.667C5.357,-11.303,5.893,-7.633,5.145,-1.408C5.145,-1.408,6.53,-6.797,7.52,-6.807C9.192,-6.823,7.542,7.587,3.34,11.882C3.34,11.882,-3.211,10.498,-3.211,10.498Z" /></g><g id="i10" transform="matrix(1,0,0,1,8.091,28.675)"><path fill="#f9b384" d="M6.073,-8.251C5.998,-7.534,5.916,-6.838,5.827,-6.166C5.827,-6.166,5.827,-6.16,5.827,-6.16C5.528,-3.769,5.155,-1.632,4.721,0.198C4.698,0.288,4.684,0.37,4.661,0.452C3.384,5.688,3.153,8.251,-1.21,7.563C-1.21,7.563,-5.699,2.454,-5.699,2.454C-5.699,2.454,-5.744,2.402,-5.744,2.402C-5.744,2.402,-6.073,2.028,-6.073,2.028C-6.073,2.028,-5.161,-0.661,-5.161,-0.661C-5.161,-0.661,-5.042,-1.012,-5.042,-1.012C-5.042,-1.012,-4.369,-2.969,-4.369,-2.969C-4.369,-2.969,-4.287,-3.223,-4.287,-3.223C-4.287,-3.223,-3.137,-6.592,-3.137,-6.592C-3.137,-6.592,-2.674,-7.958,-2.674,-7.958C-2.674,-7.958,6.073,-8.251,6.073,-8.251Z" /></g></g></g></g></g></g></g></g></g><g transform="matrix(1,0,0,1,115.443,382.923)" id="i45"><g id="i46" transform="matrix(1,0,0,1,12.487,15.956)"><path fill="#1f3c88" d="M1.605,-6.268C1.605,-6.268,0.462,-2.697,0.462,-2.697C-7.374,-0.122,-11.945,2.828,-12.238,6.268C-12.238,6.268,10.421,6.268,10.421,6.268C10.421,6.268,12.238,-5.691,12.238,-5.691C7.649,-4.571,3.972,-5.35,1.605,-6.268Z" /></g><g id="i14" transform="matrix(1,0,0,1,19.994,6.098)"><path fill="#f9b384" d="M-3.061,-5.288C-3.061,-5.288,-5.902,3.59,-5.902,3.59C-3.535,4.508,0.141,5.287,4.73,4.167C4.73,4.167,5.902,-3.544,5.902,-3.544C5.902,-3.544,-3.061,-5.288,-3.061,-5.288Z" /></g><g id="i15" transform="matrix(1,0,0,1,50.723,5.416)"><path fill="#f9b384" d="M4.948,3.876C4.948,3.876,5.613,-5.167,5.613,-5.167C5.613,-5.167,-5.031,-4.605,-5.031,-4.605C-5.031,-4.605,-5.613,3.73,-5.613,3.73C-1.107,5.166,2.618,4.604,4.948,3.876Z" /></g><g id="i10" transform="matrix(1,0,0,1,56.336,15.685)"><path fill="#1f3c88" d="M12.139,6.538C11.846,3.098,7.843,-1.616,-0.934,-2.736C-0.934,-2.736,-0.665,-6.393,-0.665,-6.393C-2.995,-5.665,-6.72,-5.102,-11.226,-6.538C-11.226,-6.538,-12.139,6.538,-12.139,6.538C-12.139,6.538,12.139,6.538,12.139,6.538Z" /></g></g><g id="i47"><g transform="translate(156.066,205.845)"><g transform="rotate(0)"><animateTransform repeatCount="indefinite" type="rotate" attributeName="transform" dur="4.017s" begin="0s" calcMode="spline" values="0; 5; 0; 5; 0; 0" keyTimes="0; 0.248963; 0.497925; 0.746888; 0.995851; 1" keySplines="0.333 0 0.667 1; 0.333 0 0.667 1; 0.167 0 0.667 1; 0.333 0 0.667 1; 0 0 1 1" fill="freeze" /><g transform="scale(1,1) translate(-6.671,-14.336)"><g id="i15" transform="matrix(1,0,0,1,6.671,9.961)"><path fill="#f9b384" d="M6.421,9.621C6.421,9.621,-6.421,9.711,-6.421,9.711C-6.421,9.711,-6.421,-9.711,-6.421,-9.711C-6.421,-9.711,6.031,-9.711,6.031,-9.711C6.031,-9.711,6.039,-8.523,6.039,-8.523C6.039,-8.523,6.099,-2.367,6.099,-2.367C6.099,-2.367,6.189,7.516,6.189,7.516C6.189,7.516,6.421,9.621,6.421,9.621Z" /></g><g id="i10" transform="matrix(1,0,0,1,7.335,6.663)"><path fill="#e28b6d" d="M5.435,1.863C3.127,4.291,-2.895,1.551,-5.435,-1.124C-5.435,-1.124,5.374,-4.292,5.374,-4.292C5.374,-4.292,5.435,1.863,5.435,1.863Z" /></g></g></g></g></g><g id="i47"><g transform="translate(156.066,205.845)"><g transform="rotate(0)"><animateTransform repeatCount="indefinite" type="rotate" attributeName="transform" dur="4.017s" begin="0s" calcMode="spline" values="0; 5; 0; 5; 0; 0" keyTimes="0; 0.248963; 0.497925; 0.746888; 0.995851; 1" keySplines="0.333 0 0.667 1; 0.333 0 0.667 1; 0.167 0 0.667 1; 0.333 0 0.667 1; 0 0 1 1" fill="freeze" /><g transform="scale(1,1) translate(-6.671,-14.336)"><g transform="matrix(1,0,0,1,-5.967,-17.42)" id="i48"><g id="i10" transform="matrix(1,0,0,1,11.002,12.736)"><path fill="#f9b384" d="M10.716,0.452C10.709,1.886,10.619,3.388,10.38,4.822C9.753,8.736,8.094,12.12,4.27,12.224C-4.769,12.486,-7.346,7.317,-9.049,3.089C-10.752,-1.147,-7.99,-11.328,-7.99,-11.328C-7.99,-11.328,3.709,-12.486,3.709,-12.486C3.709,-12.486,10.133,-7.219,10.133,-7.219C10.133,-7.219,10.753,-3.641,10.716,0.452Z" /></g></g></g></g></g></g><g id="i47"><g transform="translate(156.066,205.845)"><g transform="rotate(0)"><animateTransform repeatCount="indefinite" type="rotate" attributeName="transform" dur="4.017s" begin="0s" calcMode="spline" values="0; 5; 0; 5; 0; 0" keyTimes="0; 0.248963; 0.497925; 0.746888; 0.995851; 1" keySplines="0.333 0 0.667 1; 0.333 0 0.667 1; 0.167 0 0.667 1; 0.333 0 0.667 1; 0 0 1 1" fill="freeze" /><g transform="scale(1,1) translate(-6.671,-14.336)"><g id="i49"><g transform="translate(-6.573,-9.201)"><g transform="rotate(0)"><animateTransform repeatCount="indefinite" type="rotate" attributeName="transform" dur="4.017s" begin="0s" calcMode="spline" values="0; 5; 0; 5; 0; 0" keyTimes="0; 0.24488; 0.497925; 0.746888; 0.995851; 1" keySplines="0.333 0 0.667 1; 0.333 0 0.667 1; 0.167 0 0.667 1; 0.333 0 0.667 1; 0 0 1 1" fill="freeze" /><g transform="scale(1,1) translate(-11.355,-16.999)"><g id="i10" transform="matrix(1,0,0,1,19.23,11.75)"><path fill="#102048" d="M-7.054,11.499C-7.054,11.499,-4.475,11.381,-4.034,4.725C0.576,6.269,3.946,4.861,6.615,1.791C8.893,4.799,15.27,5.74,17.424,-0.419C18.98,-4.87,14.685,-11.499,8.429,-7.483C2.298,-10.581,-7.001,-10.369,-9.678,-2.771C-9.678,-2.771,-18.98,1.519,-9.13,10.963C-8.932,11.152,-7.054,11.499,-7.054,11.499Z" /></g></g></g></g></g></g></g></g></g><g transform="matrix(1,0,0,1,157.274,280.643)" id="i50"><g id="i10" transform="matrix(1,0,0,1,12.14,53.911)"><path fill="#102048" d="M11.89,-53.661C11.89,-53.661,4.793,53.661,4.793,53.661C4.793,53.661,-11.89,53.661,-11.89,53.661C-11.89,53.661,-7.719,-50.479,-7.719,-50.479C-7.719,-50.479,-5.167,-51.662,-5.167,-51.662C-5.167,-51.662,11.89,-53.661,11.89,-53.661Z" /></g></g><g transform="matrix(1,0,0,1,125.9,257.991)" id="i51"><g id="i10" transform="matrix(1,0,0,1,28.262,65.237)"><path fill="#1f3c88" d="M-16.309,-57.019C-16.309,-57.019,-28.012,64.987,-28.012,64.987C-28.012,64.987,-9.835,64.987,-9.835,64.987C-9.835,64.987,7.47,-36.353,7.47,-36.353C7.47,-36.353,27.14,-42.329,27.14,-42.329C27.14,-42.329,28.012,-63.991,28.012,-63.991C28.012,-63.991,-15.811,-64.987,-15.811,-64.987C-15.811,-64.987,-16.309,-57.019,-16.309,-57.019Z" /></g></g><g transform="matrix(1,0,0,1,136.771,254.129)" id="i52"><g id="i10" transform="matrix(1,0,0,1,20.875,6.848)"><path fill="#102048" d="M-17.184,5.499C-7.256,9.062,16.038,4.989,20.875,0.025C20.875,0.025,17.438,-6.848,17.438,-6.848C17.438,-6.848,-20.875,-1.757,-20.875,-1.757C-20.875,-1.757,-17.184,5.499,-17.184,5.499Z" /></g></g><g transform="matrix(1,0,0,1,142.501,204.022)" id="i53"><g id="i10" transform="matrix(1,0,0,1,17.688,30.462)"><path fill="#ffffff" d="M17.438,24.863C17.117,24.997,16.788,25.139,16.452,25.266C12.74,26.775,8.512,28.097,4.007,28.971C1.318,29.502,-1.483,29.86,-4.336,29.995C-8.639,30.212,-13.061,29.927,-17.438,28.934C-17.438,28.934,-11.874,-22.951,-11.874,-22.951C-11.874,-22.951,-11.194,-29.278,-11.194,-29.278C-11.194,-29.278,-3.911,-20.314,4.12,-30.212C4.12,-30.212,17.438,24.863,17.438,24.863Z" /></g></g><g transform="matrix(1,0,0,1,142.752,208.661)" id="i54"><g id="i10" transform="matrix(1,0,0,1,7.391,27.944)"><path fill="#1f3c88" d="M5.71,27.875C1.407,28.092,-3.015,27.808,-7.392,26.814C-7.392,26.814,-1.827,-25.071,-1.827,-25.071C-1.827,-25.071,0.16,-27.943,0.16,-27.943C5.067,-16.006,10.095,10.425,5.71,27.875Z" /></g></g><g transform="matrix(1,0,0,1,87.619,202.901)" id="i55"><g mask="url(#i5)" id="i56"><g id="i10" transform="matrix(1,0,0,1,35.045,38.656)"><path fill="#708cd5" d="M26.986,-38.406C32.519,-14.913,34.795,9.261,26.643,36.105C20.597,38.405,14.016,38.379,6.973,36.355C6.973,36.355,8.715,-12.447,8.715,-12.447C8.715,-12.447,-32.307,15.751,-32.307,15.751C-32.307,15.751,-34.796,0.376,-34.796,0.376C-19.027,-14.702,8.238,-37.482,26.986,-38.406Z" /></g></g></g><g id="i57"><g transform="translate(137.289,216.057)"><g transform="rotate(0)"><animateTransform repeatCount="indefinite" type="rotate" attributeName="transform" dur="4.017s" begin="0s" calcMode="spline" values="0; 5; 0; 5; 0; 0" keyTimes="0; 0.248963; 0.497925; 0.746888; 0.995851; 1" keySplines="0.333 0 0.667 1; 0.333 0 0.667 1; 0.167 0 0.667 1; 0.333 0 0.667 1; 0 0 1 1" fill="freeze" /><g transform="scale(1,1) translate(-49.67,-13.156)"><g clip-path="url(#i6)" id="i58"><g id="i10" transform="matrix(1,0,0,1,35.045,38.656)"><path fill="#708cd5" d="M26.986,-38.406C32.519,-14.913,34.795,9.261,26.643,36.105C20.597,38.405,14.016,38.379,6.973,36.355C6.973,36.355,8.715,-12.447,8.715,-12.447C8.715,-12.447,-32.307,15.751,-32.307,15.751C-32.307,15.751,-34.796,0.376,-34.796,0.376C-19.027,-14.702,8.238,-37.482,26.986,-38.406Z" /></g></g></g></g></g></g><g transform="matrix(1,0,0,1,161.961,215.475)" id="i59"><g id="i10" transform="matrix(1,0,0,1,7.34,23.99)"><path fill="#1f3c88" d="M7.34,20.284C3.628,21.793,-0.6,23.115,-5.105,23.989C-7.577,9.811,-8.122,-13.48,-6.113,-23.989C-6.113,-23.989,7.34,20.284,7.34,20.284Z" /></g></g><g id="i43"><g transform="translate(174.212,217.988)"><g transform="rotate(0)"><animateTransform repeatCount="indefinite" type="rotate" attributeName="transform" dur="4.017s" begin="0s" calcMode="spline" values="0; 5; 0; 5; 0; 0" keyTimes="0; 0.248963; 0.497925; 0.746888; 0.995851; 1" keySplines="0.333 0 0.667 1; 0.333 0 0.667 1; 0.167 0 0.667 1; 0.333 0 0.667 1; 0 0 1 1" fill="freeze" /><g transform="scale(1,1) translate(-12.347,-15.367)"><g id="i44"><g transform="translate(43.787,15.044)"><g transform="rotate(0)"><animateTransform repeatCount="indefinite" type="rotate" attributeName="transform" dur="4.017s" begin="0s" calcMode="spline" values="0; 5; 0; 5; 0; 0" keyTimes="0; 0.248963; 0.497925; 0.746888; 0.995851; 1" keySplines="0.333 0 0.667 1; 0.333 0 0.667 1; 0.167 0 0.667 1; 0.333 0 0.667 1; 0 0 1 1" fill="freeze" /><g transform="scale(1,1) translate(-6.88,-31.525)"><g transform="matrix(1,0,0,1,2.347,25.452)" id="i60"><g id="i10" transform="matrix(1,0,0,1,5.233,5.448)"><path fill="#e28b6d" d="M5.233,-2.027C5.211,-1.937,5.196,-1.855,5.173,-1.773C3.896,3.463,3.664,6.026,-0.699,5.338C-0.699,5.338,-5.188,0.229,-5.188,0.229C-5.188,0.229,-5.233,0.177,-5.233,0.177C-5.233,0.177,-4.65,-2.886,-4.65,-2.886C-4.65,-2.886,-4.531,-3.237,-4.531,-3.237C-4.531,-3.237,-3.858,-5.194,-3.858,-5.194C-3.858,-5.194,-3.776,-5.448,-3.776,-5.448C-3.776,-5.448,5.233,-2.027,5.233,-2.027Z" /></g></g></g></g></g></g></g></g></g></g><g transform="matrix(1,0,0,1,161.865,202.621)" id="i61"><g mask="url(#i7)" id="i62"><g id="i10" transform="matrix(1,0,0,1,24.597,36.742)"><path fill="#708cd5" d="M24.347,-19.592C24.347,-19.592,13.329,3.752,6.793,4.312C0.457,4.855,-2.545,-1.29,-2.545,-1.29C-2.545,-1.29,1.938,32.824,1.938,32.824C-3.328,35.29,-9.073,36.491,-15.744,35.311C-21.668,16.076,-23.907,-8.794,-24.347,-36.492C-19.552,-36.194,-10.054,-35.783,-6.654,-33.597C-0.553,-29.675,6.979,-15.669,6.979,-15.669C6.979,-15.669,15.757,-27.622,15.757,-27.622C15.757,-27.622,24.347,-19.592,24.347,-19.592Z" /></g></g></g><g id="i43"><g transform="translate(174.212,217.988)"><g transform="rotate(0)"><animateTransform repeatCount="indefinite" type="rotate" attributeName="transform" dur="4.017s" begin="0s" calcMode="spline" values="0; 5; 0; 5; 0; 0" keyTimes="0; 0.248963; 0.497925; 0.746888; 0.995851; 1" keySplines="0.333 0 0.667 1; 0.333 0 0.667 1; 0.167 0 0.667 1; 0.333 0 0.667 1; 0 0 1 1" fill="freeze" /><g transform="scale(1,1) translate(-12.347,-15.367)"><g clip-path="url(#i8)" id="i63"><g id="i10" transform="matrix(1,0,0,1,24.597,36.742)"><path fill="#708cd5" d="M24.347,-19.592C24.347,-19.592,13.329,3.752,6.793,4.312C0.457,4.855,-2.545,-1.29,-2.545,-1.29C-2.545,-1.29,1.938,32.824,1.938,32.824C-3.328,35.29,-9.073,36.491,-15.744,35.311C-21.668,16.076,-23.907,-8.794,-24.347,-36.492C-19.552,-36.194,-10.054,-35.783,-6.654,-33.597C-0.553,-29.675,6.979,-15.669,6.979,-15.669C6.979,-15.669,15.757,-27.622,15.757,-27.622C15.757,-27.622,24.347,-19.592,24.347,-19.592Z" /></g></g></g></g></g></g><g id="i57"><g transform="translate(137.289,216.057)"><g transform="rotate(0)"><animateTransform repeatCount="indefinite" type="rotate" attributeName="transform" dur="4.017s" begin="0s" calcMode="spline" values="0; 5; 0; 5; 0; 0" keyTimes="0; 0.248963; 0.497925; 0.746888; 0.995851; 1" keySplines="0.333 0 0.667 1; 0.333 0 0.667 1; 0.167 0 0.667 1; 0.333 0 0.667 1; 0 0 1 1" fill="freeze" /><g transform="scale(1,1) translate(-49.67,-13.156)"><g transform="matrix(1,0,0,1,-18.466,-27.437)" id="i64"><g id="i65" transform="matrix(1,0,0,1,9.76,7.599)"><path fill="#6f3428" d="M-2.609,3.818C-2.609,3.818,-1.943,-7.349,-0.807,-6.822C0.329,-6.295,2.609,3.415,2.609,3.415C2.609,3.415,0.173,7.349,0.173,7.349C0.173,7.349,-2.609,3.818,-2.609,3.818Z" /></g><g id="i66" transform="matrix(1,0,0,1,28.919,221.635)"><path fill="#ee6f57" d="M11.763,-8.573C11.763,-8.573,12.094,-4.897,12.094,-4.897C12.676,1.59,7.889,7.323,1.401,7.906C1.401,7.906,0.456,7.99,0.456,7.99C-6.031,8.573,-11.763,3.785,-12.346,-2.702C-12.346,-2.702,-12.676,-6.377,-12.676,-6.377C-12.676,-6.377,11.763,-8.573,11.763,-8.573Z" /></g><g id="i67" transform="matrix(1,0,0,1,20.467,125.18)"><path fill="#fbc343" d="M4.226,-90.079C4.226,-90.079,20.214,87.882,20.214,87.882C20.214,87.882,-4.225,90.079,-4.225,90.079C-4.225,90.079,-20.214,-87.882,-20.214,-87.882C-20.214,-87.882,4.226,-90.079,4.226,-90.079Z" /></g><g id="i46" transform="matrix(1,0,0,1,19.158,110.625)"><path stroke-miterlimit="10" stroke-width="8" stroke="#6f3428" d="M11.347,77.605C11.347,77.605,2.667,78.384,2.667,78.384C2.667,78.384,-11.347,-77.604,-11.347,-77.604C-11.347,-77.604,-2.668,-78.384,-2.668,-78.384C-2.668,-78.384,11.347,77.605,11.347,77.605Z" /></g><g id="i14" transform="matrix(1,0,0,1,27.226,200.429)"><path fill="#102048" d="M13.453,12.636C13.453,12.636,-10.981,14.831,-10.981,14.831C-10.981,14.831,-11.623,7.66,-11.623,7.66C-11.623,7.66,-12.071,2.678,-12.071,2.678C-12.071,2.678,-13.453,-12.635,-13.453,-12.635C-13.453,-12.635,10.988,-14.831,10.988,-14.831C10.988,-14.831,12.362,0.483,12.362,0.483C12.362,0.483,12.81,5.465,12.81,5.465C12.81,5.465,13.453,12.636,13.453,12.636Z" /></g><g id="i15" transform="matrix(1,0,0,1,27.595,204.501)"><path fill="#fbc343" d="M12.441,1.393C12.441,1.393,-11.993,3.589,-11.993,3.589C-11.993,3.589,-12.441,-1.393,-12.441,-1.393C-12.441,-1.393,11.993,-3.589,11.993,-3.589C11.993,-3.589,12.441,1.393,12.441,1.393Z" /></g><g id="i10" transform="matrix(1,0,0,1,12.471,23.337)"><path fill="#ee6f57" d="M-12.221,13.961C-12.221,13.961,-5.432,-13.246,-5.432,-13.246C-5.432,-13.246,-3.089,-12.205,-0.246,-13.961C-0.246,-13.961,12.221,11.766,12.221,11.766C12.221,11.766,-12.221,13.961,-12.221,13.961Z" /></g></g></g></g></g></g><g id="i47"><g transform="translate(156.066,205.845)"><g transform="rotate(0)"><animateTransform repeatCount="indefinite" type="rotate" attributeName="transform" dur="4.017s" begin="0s" calcMode="spline" values="0; 5; 0; 5; 0; 0" keyTimes="0; 0.248963; 0.497925; 0.746888; 0.995851; 1" keySplines="0.333 0 0.667 1; 0.333 0 0.667 1; 0.167 0 0.667 1; 0.333 0 0.667 1; 0 0 1 1" fill="freeze" /><g transform="scale(1,1) translate(-6.671,-14.336)"><g transform="matrix(1,0,0,1,-8.994,-6.713)" id="i68"><g id="i10" transform="matrix(1,0,0,1,4.415,4.364)"><path fill="#f9b384" d="M2.281,-2.794C2.171,-3.195,0.347,-3.747,-0.054,-3.858C-0.676,-4.029,-1.353,-4.114,-1.959,-3.84C-4.165,-2.844,-3.87,0.315,-2.727,1.975C-2.08,2.915,-1.132,3.639,-0.03,3.954C0.371,4.069,4.165,4.114,3.999,3.504C3.998,3.502,2.284,-2.78,2.281,-2.794Z" /></g></g></g></g></g></g><g id="i57"><g transform="translate(137.289,216.057)"><g transform="rotate(0)"><animateTransform repeatCount="indefinite" type="rotate" attributeName="transform" dur="4.017s" begin="0s" calcMode="spline" values="0; 5; 0; 5; 0; 0" keyTimes="0; 0.248963; 0.497925; 0.746888; 0.995851; 1" keySplines="0.333 0 0.667 1; 0.333 0 0.667 1; 0.167 0 0.667 1; 0.333 0 0.667 1; 0 0 1 1" fill="freeze" /><g transform="scale(1,1) translate(-49.67,-13.156)"><g transform="matrix(1,0,0,1,-20.373,43.877)" id="i69"><g id="i10" transform="matrix(1,0,0,1,5.798,9.047)"><path fill="#f9b384" d="M4.616,-5.988C4.043,-7.787,2.157,-8.797,0.372,-8.181C-2.408,-7.221,-4.831,-5.591,-5.206,-2.82C-5.548,-0.298,-4.286,7.762,1.35,8.797C1.35,8.797,0.891,4.656,0.891,4.656C0.891,4.656,4.342,3.851,5.033,2.355C5.515,1.308,5.548,-3.064,4.616,-5.988Z" /></g></g></g></g></g></g><g transform="matrix(1,0,0,1,181.655,221.871)" id="i70"><g id="i10" transform="matrix(1,0,0,1,1.64,10.911)"><path fill="#1f3c88" d="M-1.1,-10.662C-0.804,-8.898,-0.552,-7.13,-0.309,-5.36C-0.059,-3.591,0.14,-1.815,0.367,-0.044C0.367,-0.044,0.946,5.285,0.946,5.285C1.115,7.063,1.28,8.841,1.39,10.627C1.39,10.627,1.1,10.662,1.1,10.662C0.794,8.899,0.545,7.13,0.298,5.36C0.298,5.36,-0.368,0.042,-0.368,0.042C-0.556,-1.734,-0.771,-3.507,-0.936,-5.287C-1.109,-7.064,-1.271,-8.843,-1.39,-10.627C-1.39,-10.627,-1.1,-10.662,-1.1,-10.662Z" /></g></g><g transform="matrix(1,0,0,1,130.293,221.568)" id="i71"><g id="i10" transform="matrix(1,0,0,1,0.959,12.116)"><path fill="#1f3c88" d="M0.709,-11.852C0.705,-9.872,0.657,-7.893,0.598,-5.915C0.548,-3.936,0.445,-1.959,0.372,0.018C0.372,0.018,0.049,5.945,0.049,5.945C-0.083,7.92,-0.22,9.893,-0.412,11.865C-0.412,11.865,-0.704,11.851,-0.704,11.851C-0.709,9.87,-0.658,7.892,-0.604,5.913C-0.604,5.913,-0.368,-0.018,-0.368,-0.018C-0.254,-1.994,-0.169,-3.97,-0.033,-5.945C0.095,-7.919,0.235,-9.893,0.417,-11.865C0.417,-11.865,0.709,-11.852,0.709,-11.852Z" /></g></g><g id="i47"><g transform="translate(156.066,205.845)"><g transform="rotate(0)"><animateTransform repeatCount="indefinite" type="rotate" attributeName="transform" dur="4.017s" begin="0s" calcMode="spline" values="0; 5; 0; 5; 0; 0" keyTimes="0; 0.248963; 0.497925; 0.746888; 0.995851; 1" keySplines="0.333 0 0.667 1; 0.333 0 0.667 1; 0.167 0 0.667 1; 0.333 0 0.667 1; 0 0 1 1" fill="freeze" /><g transform="scale(1,1) translate(-6.671,-14.336)"><g id="i72"><g transform="translate(6.052,-4.244)"><g transform="scale(1,1)"><animateTransform repeatCount="indefinite" type="scale" attributeName="transform" dur="4.017s" begin="0s" calcMode="spline" values="1 1; 1.8 0.2; 1 1; 1 1; 1.8 0.2; 1 1; 1 1" keyTimes="0; 0.062241; 0.124481; 0.497925; 0.560166; 0.622407; 1" keySplines="0.333 0 0.667 1; 0.333 0 0.667 1; 0.333 0 0.667 1; 0.333 0 0.667 1; 0.333 0 0.667 1; 0 0 1 1" fill="freeze" /><g transform="translate(-1.56,-2.516)"><g id="i10" transform="matrix(1,0,0,1,1.341,1.642)"><path fill="#102048" d="M0.934,-0.21C1.092,0.495,0.802,1.159,0.286,1.275C-0.23,1.391,-0.777,0.914,-0.935,0.209C-1.092,-0.495,-0.801,-1.16,-0.286,-1.275C0.23,-1.391,0.776,-0.915,0.934,-0.21Z" /></g></g></g></g></g></g></g></g></g><g id="i47"><g transform="translate(156.066,205.845)"><g transform="rotate(0)"><animateTransform repeatCount="indefinite" type="rotate" attributeName="transform" dur="4.017s" begin="0s" calcMode="spline" values="0; 5; 0; 5; 0; 0" keyTimes="0; 0.248963; 0.497925; 0.746888; 0.995851; 1" keySplines="0.333 0 0.667 1; 0.333 0 0.667 1; 0.167 0 0.667 1; 0.333 0 0.667 1; 0 0 1 1" fill="freeze" /><g transform="scale(1,1) translate(-6.671,-14.336)"><g id="i73"><g transform="translate(13.35,-5.364)"><g transform="scale(1,1)"><animateTransform repeatCount="indefinite" type="scale" attributeName="transform" dur="4.017s" begin="0s" calcMode="spline" values="1 1; 1.8 0.2; 1 1; 1 1; 1.8 0.2; 1 1; 1 1" keyTimes="0; 0.062241; 0.124481; 0.497925; 0.560166; 0.622407; 1" keySplines="0.333 0 0.667 1; 0.333 0 0.667 1; 0.333 0 0.667 1; 0.333 0 0.667 1; 0.333 0 0.667 1; 0 0 1 1" fill="freeze" /><g transform="translate(-1.33,-2.453)"><g id="i10" transform="matrix(1,0,0,1,1.236,1.579)"><path fill="#102048" d="M0.957,0.04C0.926,0.761,0.473,1.329,-0.056,1.307C-0.584,1.284,-0.987,0.68,-0.957,-0.041C-0.926,-0.762,-0.472,-1.329,0.056,-1.307C0.584,-1.284,0.987,-0.681,0.957,0.04Z" /></g></g></g></g></g></g></g></g></g><g id="i47"><g transform="translate(156.066,205.845)"><g transform="rotate(0)"><animateTransform repeatCount="indefinite" type="rotate" attributeName="transform" dur="4.017s" begin="0s" calcMode="spline" values="0; 5; 0; 5; 0; 0" keyTimes="0; 0.248963; 0.497925; 0.746888; 0.995851; 1" keySplines="0.333 0 0.667 1; 0.333 0 0.667 1; 0.167 0 0.667 1; 0.333 0 0.667 1; 0 0 1 1" fill="freeze" /><g transform="scale(1,1) translate(-6.671,-14.336)"><g transform="matrix(1,0,0,1,9.454,-5.857)" id="i74"><g id="i10" transform="matrix(1,0,0,1,1.748,3.2)"><path fill="#e28b6d" d="M-1.143,-2.95C-0.887,-2.333,-0.927,-1.667,-0.762,-1.161C-0.678,-0.905,-0.561,-0.68,-0.4,-0.54C-0.25,-0.404,-0.008,-0.315,0.301,-0.196C0.618,-0.073,0.956,0.146,1.187,0.471C1.431,0.788,1.499,1.335,1.277,1.694C1.079,2.052,0.793,2.25,0.547,2.432C0.291,2.605,0.044,2.789,-0.223,2.95C-0.223,2.95,-0.414,2.73,-0.414,2.73C-0.219,2.488,-0.003,2.269,0.203,2.038C0.415,1.82,0.611,1.607,0.686,1.409C0.844,1.064,0.506,0.686,0.015,0.491C-0.237,0.376,-0.602,0.274,-0.896,-0.026C-1.179,-0.315,-1.319,-0.677,-1.375,-1.014C-1.499,-1.706,-1.358,-2.298,-1.425,-2.873C-1.425,-2.873,-1.143,-2.95,-1.143,-2.95Z" /></g></g></g></g></g></g><g id="i47"><g transform="translate(156.066,205.845)"><g transform="rotate(0)"><animateTransform repeatCount="indefinite" type="rotate" attributeName="transform" dur="4.017s" begin="0s" calcMode="spline" values="0; 5; 0; 5; 0; 0" keyTimes="0; 0.248963; 0.497925; 0.746888; 0.995851; 1" keySplines="0.333 0 0.667 1; 0.333 0 0.667 1; 0.167 0 0.667 1; 0.333 0 0.667 1; 0 0 1 1" fill="freeze" /><g transform="scale(1,1) translate(-6.671,-14.336)"><g id="i75"><g transform="translate(5.439,-8.023)"><animateTransform repeatCount="indefinite" type="translate" attributeName="transform" dur="4.017s" begin="0s" calcMode="spline" values="5.439 -8.023; 5.439 -7.623; 5.439 -8.023; 5.439 -8.023; 5.439 -7.623; 5.439 -8.023; 5.439 -8.023" keyTimes="0; 0.062241; 0.124481; 0.497925; 0.560166; 0.622407; 1" keySplines="0.333 0 0.667 1; 0.333 0 0.667 1; 0 0 1 1; 0.333 0 0.667 1; 0.333 0 0.667 1; 0 0 1 1" fill="freeze" /><g transform="scale(1,1) translate(-2.486,-1.178)"><g id="i10" transform="matrix(1,0,0,1,2.486,1.178)"><path fill="#102048" d="M-2.236,0.803C-2.126,0.36,-1.856,-0.058,-1.474,-0.361C-1.098,-0.673,-0.607,-0.843,-0.12,-0.868C0.861,-0.928,1.832,-0.37,2.236,0.455C2.236,0.455,2.007,0.636,2.007,0.636C1.358,0.127,0.644,-0.152,-0.084,-0.126C-0.814,-0.106,-1.476,0.27,-1.972,0.928C-1.972,0.928,-2.236,0.803,-2.236,0.803Z" /></g></g></g></g></g></g></g></g><g id="i47"><g transform="translate(156.066,205.845)"><g transform="rotate(0)"><animateTransform repeatCount="indefinite" type="rotate" attributeName="transform" dur="4.017s" begin="0s" calcMode="spline" values="0; 5; 0; 5; 0; 0" keyTimes="0; 0.248963; 0.497925; 0.746888; 0.995851; 1" keySplines="0.333 0 0.667 1; 0.333 0 0.667 1; 0.167 0 0.667 1; 0.333 0 0.667 1; 0 0 1 1" fill="freeze" /><g transform="scale(1,1) translate(-6.671,-14.336)"><g id="i76"><g transform="translate(12.726,-8.861)"><animateTransform repeatCount="indefinite" type="translate" attributeName="transform" dur="4.017s" begin="0s" calcMode="spline" values="12.726 -8.861; 12.726 -8.461; 12.726 -8.861; 12.726 -8.861; 12.726 -8.461; 12.726 -8.861; 12.726 -8.861" keyTimes="0; 0.062241; 0.124481; 0.497925; 0.560166; 0.622407; 1" keySplines="0.333 0 0.667 1; 0.333 0 0.667 1; 0 0 1 1; 0.333 0 0.667 1; 0.333 0 0.667 1; 0 0 1 1" fill="freeze" /><g transform="scale(1,1) translate(-2.063,-1.124)"><g id="i10" transform="matrix(1,0,0,1,2.063,1.124)"><path fill="#102048" d="M-1.814,0.726C-1.704,0.38,-1.509,0.053,-1.228,-0.217C-0.952,-0.494,-0.567,-0.677,-0.168,-0.742C0.635,-0.875,1.498,-0.466,1.814,0.247C1.814,0.247,1.581,0.421,1.581,0.421C1.055,0.068,0.482,-0.08,-0.058,-0.006C-0.328,0.03,-0.585,0.13,-0.838,0.278C-1.087,0.434,-1.314,0.646,-1.563,0.874C-1.563,0.874,-1.814,0.726,-1.814,0.726Z" /></g></g></g></g></g></g></g></g><g id="i47"><g transform="translate(156.066,205.845)"><g transform="rotate(0)"><animateTransform repeatCount="indefinite" type="rotate" attributeName="transform" dur="4.017s" begin="0s" calcMode="spline" values="0; 5; 0; 5; 0; 0" keyTimes="0; 0.248963; 0.497925; 0.746888; 0.995851; 1" keySplines="0.333 0 0.667 1; 0.333 0 0.667 1; 0.167 0 0.667 1; 0.333 0 0.667 1; 0 0 1 1" fill="freeze" /><g transform="scale(1,1) translate(-6.671,-14.336)"><g transform="matrix(1,0,0,1,6.531,1.377)" id="i77"><g id="i10" transform="matrix(1,0,0,1,2.442,1.382)"><path d="M-2.192,-1.132C-1.481,-0.019,-0.641,0.554,0.194,0.496C0.89,0.448,1.582,-0.04,2.192,-1.017C2.192,-1.017,-2.192,-1.132,-2.192,-1.132Z" fill="#ffffff"><animate repeatCount="indefinite" attributeName="d" dur="4.017s" begin="0s" calcMode="spline" values="M-2.192,-1.132C-1.481,-0.019,-0.641,0.554,0.194,0.496C0.89,0.448,1.582,-0.04,2.192,-1.017C2.192,-1.017,-2.192,-1.132,-2.192,-1.132Z; M-2.505,-1.127C-1.794,-0.014,-0.647,0.741,0.188,0.683C0.884,0.635,2.238,-0.045,2.848,-1.022C2.848,-1.022,-2.505,-1.127,-2.505,-1.127Z; M-2.192,-1.132C-1.481,-0.019,-0.641,0.554,0.194,0.496C0.89,0.448,1.582,-0.04,2.192,-1.017C2.192,-1.017,-2.192,-1.132,-2.192,-1.132Z; M-2.505,-1.127C-1.794,-0.014,-0.647,0.741,0.188,0.683C0.884,0.635,2.238,-0.045,2.848,-1.022C2.848,-1.022,-2.505,-1.127,-2.505,-1.127Z; M-2.192,-1.132C-1.481,-0.019,-0.641,0.554,0.194,0.496C0.89,0.448,1.582,-0.04,2.192,-1.017C2.192,-1.017,-2.192,-1.132,-2.192,-1.132Z; M-2.192,-1.132C-1.481,-0.019,-0.641,0.554,0.194,0.496C0.89,0.448,1.582,-0.04,2.192,-1.017C2.192,-1.017,-2.192,-1.132,-2.192,-1.132Z" keyTimes="0; 0.248963; 0.497925; 0.746888; 0.995851; 1" keySplines="0.333 0 0.667 1; 0.333 0 0.667 1; 0.167 0 0.667 1; 0.333 0 0.667 1; 0 0 1 1" fill="freeze" /></path></g></g></g></g></g></g><g id="i47"><g transform="translate(156.066,205.845)"><g transform="rotate(0)"><animateTransform repeatCount="indefinite" type="rotate" attributeName="transform" dur="4.017s" begin="0s" calcMode="spline" values="0; 5; 0; 5; 0; 0" keyTimes="0; 0.248963; 0.497925; 0.746888; 0.995851; 1" keySplines="0.333 0 0.667 1; 0.333 0 0.667 1; 0.167 0 0.667 1; 0.333 0 0.667 1; 0 0 1 1" fill="freeze" /><g transform="scale(1,1) translate(-6.671,-14.336)"><g transform="matrix(1,0,0,1,13.853,-4.73)" id="i78"><g id="i10" transform="matrix(1,0,0,1,0.966,2.434)"><path fill="#fc8879" d="M0.966,-2.434C0.959,-0.999,0.834,1,0.595,2.434C-0.309,2.143,-0.966,1.298,-0.966,0.29C-0.966,-0.838,-0.102,-2.262,0.966,-2.434Z" /></g></g></g></g></g></g><g id="i47"><g transform="translate(156.066,205.845)"><g transform="rotate(0)"><animateTransform repeatCount="indefinite" type="rotate" attributeName="transform" dur="4.017s" begin="0s" calcMode="spline" values="0; 5; 0; 5; 0; 0" keyTimes="0; 0.248963; 0.497925; 0.746888; 0.995851; 1" keySplines="0.333 0 0.667 1; 0.333 0 0.667 1; 0.167 0 0.667 1; 0.333 0 0.667 1; 0 0 1 1" fill="freeze" /><g transform="scale(1,1) translate(-6.671,-14.336)"><g transform="matrix(1,0,0,1,1.188,-3.08)" id="i79"><g id="i10" transform="matrix(1,0,0,1,2.409,2.409)"><path fill="#fc8879" d="M2.409,0C2.409,1.331,1.33,2.409,0,2.409C-1.33,2.409,-2.409,1.331,-2.409,0C-2.409,-1.331,-1.33,-2.409,0,-2.409C1.33,-2.409,2.409,-1.331,2.409,0Z" /></g></g></g></g></g></g><g id="i47"><g transform="translate(156.066,205.845)"><g transform="rotate(0)"><animateTransform repeatCount="indefinite" type="rotate" attributeName="transform" dur="4.017s" begin="0s" calcMode="spline" values="0; 5; 0; 5; 0; 0" keyTimes="0; 0.248963; 0.497925; 0.746888; 0.995851; 1" keySplines="0.333 0 0.667 1; 0.333 0 0.667 1; 0.167 0 0.667 1; 0.333 0 0.667 1; 0 0 1 1" fill="freeze" /><g transform="scale(1,1) translate(-6.671,-14.336)"><g transform="matrix(1,0,0,1,-6.935,-4.806)" id="i80"><g id="i10" transform="matrix(1,0,0,1,1.77,1.156)"><path fill="#e28b6d" d="M1.288,0.906C0.812,0.583,0.375,0.23,-0.059,0.02C-0.274,-0.086,-0.474,-0.15,-0.653,-0.134C-0.833,-0.121,-1.041,-0.015,-1.275,0.151C-1.275,0.151,-1.52,-0.008,-1.52,-0.008C-1.418,-0.306,-1.203,-0.641,-0.81,-0.771C-0.419,-0.906,-0.023,-0.798,0.271,-0.646C0.866,-0.322,1.273,0.157,1.52,0.73C1.52,0.73,1.288,0.906,1.288,0.906Z" /></g></g></g></g></g></g><g id="i47"><g transform="translate(156.066,205.845)"><g transform="rotate(0)"><animateTransform repeatCount="indefinite" type="rotate" attributeName="transform" dur="4.017s" begin="0s" calcMode="spline" values="0; 5; 0; 5; 0; 0" keyTimes="0; 0.248963; 0.497925; 0.746888; 0.995851; 1" keySplines="0.333 0 0.667 1; 0.333 0 0.667 1; 0.167 0 0.667 1; 0.333 0 0.667 1; 0 0 1 1" fill="freeze" /><g transform="scale(1,1) translate(-6.671,-14.336)"><g transform="matrix(1,0,0,1,-75.502,66.67)" id="i81"><g id="i10" transform="matrix(1,0,0,1,2.091,5.267)"><path fill="#6f3428" d="M2.092,-5.267C2.092,-5.267,-1.376,5.267,-1.376,5.267C-1.376,5.267,-2.092,-2.965,-2.092,-2.965C0.063,-3.434,1.24,-4.296,2.092,-5.267Z" /></g></g></g></g></g></g><g transform="matrix(1,0,0,1,16.781,401.216)" id="i82"><g id="i10"><path stroke-miterlimit="10" stroke-width="8" stroke="#102048" d="M4,4C4,4,486.897,4,486.897,4" /></g></g></svg>